<?xml version="1.0" encoding="UTF-8"?>
<svg width="215px" height="204px" viewBox="0 0 215 204" version="1.1" xmlns="http://www.w3.org/2000/svg" xmlns:xlink="http://www.w3.org/1999/xlink">
    <title>アクティビティが存在しないことを表すイメージ</title>
    <g id="Page-2" stroke="none" stroke-width="1" fill="none" fill-rule="evenodd">
        <g id="empty-description" transform="translate(1.000000, 0.000000)" fill-rule="nonzero">
            <path d="M20,61 L24.4722507,65.4722507" id="Line-2" stroke="#DBE5EA" stroke-width="3" stroke-linecap="round"></path>
            <path d="M194.966661,35.9666615 L198.472251,39.4722507" id="Line-2" stroke="#DBE5EA" stroke-width="3" stroke-linecap="round" transform="translate(196.500000, 37.500000) scale(-1, 1) translate(-196.500000, -37.500000) "></path>
            <rect id="Rectangle" stroke="#DBE5EA" fill="#DBE5EA" x="19.5" y="143.5" width="4" height="4"></rect>
            <rect id="Rectangle" stroke="#DBE5EA" fill="#DBE5EA" x="111.5" y="0.5" width="3" height="3"></rect>
            <rect id="Rectangle" stroke="#DBE5EA" stroke-width="2" x="209" y="81" width="4" height="4"></rect>
            <g id="cross" transform="translate(204.000000, 131.000000)" stroke="#DBE5EA" stroke-linecap="round" stroke-width="2">
                <path d="M0.5,3.5 L6.5,3.5" id="Line"></path>
                <path d="M0.5,3.5 L6.5,3.5" id="Line" transform="translate(3.500000, 3.500000) scale(-1, -1) rotate(90.000000) translate(-3.500000, -3.500000) "></path>
            </g>
            <g id="cross" transform="translate(36.424621, 21.424621) rotate(45.000000) translate(-36.424621, -21.424621) translate(31.424621, 15.924621)" stroke="#DBE5EA" stroke-linecap="round" stroke-width="2">
                <path d="M-6.03961325e-14,5.5 L10,5.5" id="Line"></path>
                <path d="M-2.1360691e-13,5.5 L10,5.5" id="Line" transform="translate(5.000000, 5.500000) scale(-1, -1) rotate(90.000000) translate(-5.000000, -5.500000) "></path>
            </g>
            <circle id="Oval" stroke="#DBE5EA" stroke-width="2" cx="150.5" cy="41.5" r="5.5"></circle>
            <circle id="Oval" stroke="#DBE5EA" stroke-width="2" cx="3.5" cy="96.5" r="3.5"></circle>
            <circle id="Oval" stroke="#DBE5EA" stroke-width="2" fill="#DBE5EA" cx="84" cy="45" r="2"></circle>
            <circle id="Oval" fill="#F5F9F9" cx="110.5" cy="134.5" r="69.5"></circle>
            <g id="computer" transform="translate(72.000000, 96.000000)" fill="#C2D3D7">
                <path d="M11.2959184,50 L43.744898,50 C45.0130341,50 46.0408163,48.9803427 46.0408163,47.7222317 L46.0408163,44.9758599 C51.7662628,43.4798881 56.8728874,40.4209165 60.9003109,36.0569734 C61.4629304,35.4471956 61.6482781,34.5829487 61.3846062,33.7981864 L60.7059949,31.7778533 L62.9080437,31.7778533 C63.7295519,31.7778533 64.4882813,31.3424673 64.8978396,30.6360033 C67.5817921,26.0075068 69,20.7330495 69,15.3826666 L69,11.2779382 C69,10.595794 68.691486,9.94924005 68.159957,9.51622687 C67.62783,9.08380668 66.9288903,8.91060138 66.2538664,9.04406433 C51.8577407,11.9007655 41.4489796,24.4617088 41.4489796,39.0619666 L41.4489796,45.4444633 L11.2959184,45.4444633 C10.0277822,45.4444633 9,46.4641206 9,47.7222317 C9,48.9803427 10.0277822,50 11.2959184,50 Z M46.0408163,39.0619666 C46.0408163,27.6310099 53.6137595,17.5922205 64.4081633,14.2117512 L64.4081633,15.3820735 C64.4081633,19.5022241 63.4204401,23.5689897 61.5418528,27.2223166 L57.5204082,27.2223166 C56.7826053,27.2223166 56.0890466,27.5740657 55.6579639,28.1678277 C55.2262835,28.7621829 55.109096,29.5255913 55.3422752,30.220192 L56.5900829,33.9328356 C53.6095743,36.8565648 50.0180166,38.9996839 46.0408163,40.2358478 L46.0408163,39.0619666 Z" id="Shape"></path>
                <path d="M71.1445312,0 L6.85546875,0 C3.06710808,0 0,3.21528629 0,7.0078125 L0,61.8515625 C0,65.6315918 3.07543945,68.7070312 6.85546875,68.7070312 L30.7591553,68.7070312 L28.4365081,73.4296875 L20.71875,73.4296875 C19.4565583,73.4296875 18.4335937,74.452652 18.4335937,75.7148437 C18.4335937,76.9770355 19.4565583,78 20.71875,78 L57.4335937,78 C58.6957855,78 59.71875,76.9770355 59.71875,75.7148437 C59.71875,74.452652 58.6957855,73.4296875 57.4335937,73.4296875 L49.7158356,73.4296875 L47.3931885,68.7070312 L71.1445312,68.7070312 C74.9245605,68.7070312 78,65.6315918 78,61.8515625 L78,7.0078125 C78,3.22064209 74.9394378,0 71.1445312,0 Z M6.85546875,4.5703125 L71.1445312,4.5703125 C72.3620911,4.5703125 73.4296875,5.70931999 73.4296875,7.0078125 L73.4296875,54.9960937 L4.5703125,54.9960937 L4.5703125,7.0078125 C4.5703125,5.70931999 5.63790886,4.5703125 6.85546875,4.5703125 Z M44.6224365,73.4296875 L33.5299072,73.4296875 L35.8525544,68.7070313 L42.2997894,68.7070313 L44.6224365,73.4296875 Z M71.1445312,64.1367188 L6.85546875,64.1367188 C5.59565739,64.1367188 4.5703125,63.1113739 4.5703125,61.8515625 L4.5703125,59.5664062 L73.4296875,59.5664062 L73.4296875,61.8515625 C73.4296875,63.1113739 72.4043426,64.1367188 71.1445312,64.1367188 Z" id="Shape"></path>
            </g>
        </g>
    </g>
</svg>
