<?xml version="1.0" encoding="UTF-8"?>
<svg width="31px" height="31px" viewBox="0 0 31 31" version="1.1" xmlns="http://www.w3.org/2000/svg" xmlns:xlink="http://www.w3.org/1999/xlink">
    <g id="Page" stroke="none" stroke-width="1" fill="none" fill-rule="evenodd">
        <g id="Artboard" transform="translate(-346.000000, -371.000000)" fill="#B0BEC5">
            <g id="Icons" transform="translate(91.000000, 284.000000)">
                <path d="M270.49997,117.999958 C261.93945,117.999958 254.999982,111.05998 254.999982,102.499902 C254.999982,93.939824 261.93945,86.999948 270.49997,86.999948 C279.060422,86.999948 285.999958,93.939824 285.999958,102.499902 C285.999958,111.05998 279.060422,117.999958 270.49997,117.999958 Z M270.49997,89.99987 C263.60732,89.99987 257.999972,95.607286 257.999972,102.499902 C257.999972,109.392484 263.60732,114.9999 270.49997,114.9999 C277.392552,114.9999 282.999968,109.392484 282.999968,102.499902 C282.999968,95.607286 277.392552,89.99987 270.49997,89.99987 Z M277.499958,103.999914 L268.999958,103.999914 L268.999958,94.49994 C268.999958,93.67136 269.67139,92.999928 270.49997,92.999928 C271.328584,92.999928 271.999948,93.67136 271.999948,94.49994 L271.999948,100.999856 L277.499958,100.999856 C278.328062,100.999856 278.99997,101.671322 278.99997,102.499902 C278.99997,103.328482 278.328062,103.999914 277.499958,103.999914 Z" id="Combined-shape-208"></path>
            </g>
        </g>
    </g>
</svg>
