<?xml version="1.0" encoding="UTF-8"?>
<svg class="icon-trash" width="26px" height="32px" viewBox="0 0 26 32" version="1.1" xmlns="http://www.w3.org/2000/svg" xmlns:xlink="http://www.w3.org/1999/xlink">
    <g id="Page" stroke="none" stroke-width="1" fill="none" fill-rule="evenodd">
        <g id="Artboard" transform="translate(-517.000000, -286.000000)" class="icon-trash-path">
            <g id="Icons" transform="translate(91.000000, 284.000000)">
                <path d="M450.499939,6.99993 C451.328063,6.99993 451.999964,7.671265 451.999964,8.49996 C451.999964,9.32855 451.328063,9.999885 450.499939,9.999885 L450.000008,9.999885 L450.000008,31.99987 C450.000008,33.104435 449.104459,33.999945 447.999994,33.999945 L429.999955,33.999945 C428.895432,33.999945 427.999941,33.104435 427.999941,31.99987 L427.999941,9.999885 L427.499923,9.999885 C426.671857,9.999885 425.999956,9.32855 425.999956,8.49996 C425.999956,7.671265 426.671857,6.99993 427.499923,6.99993 L432.999947,6.99993 L432.999947,3.999905 C432.999947,2.89541 433.895496,1.999935 434.999961,1.999935 L442.99993,1.999935 C444.104453,1.999935 444.999944,2.89541 444.999944,3.999905 L444.999944,6.99993 L450.499939,6.99993 Z M435.99991,4.999995 L435.99991,6.99993 L441.999923,6.99993 L441.999923,4.999995 L435.99991,4.999995 Z M446.999958,30.999885 L446.999958,9.999885 L430.999962,9.999885 L430.999962,30.999885 L446.999958,30.999885 Z"></path>
            </g>
        </g>
    </g>
</svg>
